# xmcd
#
# Track frame offsets:
#	150
#	16013
#	43207
#
# Disc length: 959 seconds
#
# Revision: 1
# Processed by: cddbd v1.5.1PL0 Copyright (c) Steve Scherf et al.
# Submitted via: dBpowerAMP V4.0
#
DISCID=1a03bd03
DTITLE=Miio - Singel Girls just wont to hve fun
DYEAR=1900
DGENRE=Country
TTITLE0=Girls Just Want To Have Fun
TTITLE1=Girls Just Want To Have Fun, karaoke version
TTITLE2=DATA
EXTD=CD Single with a quicktime move
EXTT0=
EXTT1=
EXTT2=
PLAYORDER=
